<?xml version="1.0" standalone="no"?>
<!DOCTYPE svg PUBLIC "-//W3C//DTD SVG 20010904//EN"
 "http://www.w3.org/TR/2001/REC-SVG-20010904/DTD/svg10.dtd">
<svg version="1.0" xmlns="http://www.w3.org/2000/svg"
 width="1134.000000pt" height="1134.000000pt" viewBox="0 0 1134.000000 1134.000000"
 preserveAspectRatio="xMidYMid meet">
<metadata>
Created by potrace 1.14, written by Peter Selinger 2001-2017
</metadata>
<g transform="translate(0.000000,1134.000000) scale(0.100000,-0.100000)"
fill="#000000" stroke="none">
<path d="M6485 11270 c6 -10 4 -12 -10 -6 -16 6 -16 4 -4 -11 9 -11 10 -14 2
-9 -7 4 -22 9 -34 11 -18 4 -19 2 -7 -12 10 -13 10 -15 0 -9 -8 5 -22 -2 -39
-20 -25 -28 -25 -28 -18 -3 7 23 6 23 -8 4 -8 -11 -14 -27 -12 -37 3 -11 -1
-15 -11 -11 -7 3 -11 10 -7 16 3 6 1 7 -5 3 -6 -4 -9 -13 -5 -21 3 -8 0 -15
-6 -15 -6 0 -8 -7 -4 -17 4 -10 2 -14 -4 -10 -6 4 -14 0 -17 -9 -3 -8 -2 -12
3 -9 5 3 13 0 17 -6 4 -8 3 -9 -4 -5 -7 4 -12 2 -12 -4 0 -6 -4 -9 -9 -5 -5 3
-13 0 -17 -6 -4 -8 -3 -9 4 -5 7 4 12 2 12 -3 0 -6 -6 -11 -12 -11 -9 0 -8 -4
2 -10 10 -6 11 -10 3 -10 -7 0 -13 -9 -13 -20 0 -11 -6 -20 -12 -20 -9 0 -8
-4 2 -10 11 -7 11 -10 2 -10 -7 0 -10 -4 -7 -10 3 -5 1 -10 -5 -10 -6 0 -8 -5
-5 -10 4 -6 11 -7 17 -4 7 5 8 2 4 -5 -5 -7 -14 -10 -21 -7 -14 5 -15 -11 -2
-32 5 -7 2 -14 -7 -18 -9 -3 -13 -10 -10 -15 3 -5 10 -7 15 -4 15 10 10 -2 -8
-16 -14 -12 -16 -12 -8 0 5 9 4 12 -2 8 -5 -3 -17 -24 -27 -45 -10 -21 -24
-39 -32 -39 -10 0 -11 4 -3 13 8 9 4 12 -15 10 -28 -3 -33 3 -15 21 7 7 -2 10
-30 8 -34 -2 -38 0 -25 10 16 11 16 12 0 18 -9 4 -15 3 -12 -1 3 -5 -1 -9 -9
-9 -10 0 -11 5 -4 18 7 15 6 17 -6 13 -8 -4 -15 -1 -15 6 0 6 -5 8 -12 4 -7
-4 -8 -3 -4 5 4 6 0 23 -8 36 -11 17 -13 25 -5 25 7 0 10 3 6 6 -3 3 -11 3
-17 -1 -8 -5 -8 -11 1 -23 12 -16 11 -16 -5 -1 -9 9 -18 25 -19 37 0 11 -5 18
-9 16 -5 -3 -6 -10 -3 -15 3 -5 -1 -6 -9 -3 -9 3 -13 11 -10 16 4 6 -2 5 -14
-1 -18 -10 -20 -8 -17 8 3 16 -3 18 -37 18 -28 0 -45 5 -54 17 -9 13 -18 16
-31 10 -25 -11 -53 -13 -47 -3 2 4 11 6 19 2 8 -3 15 -1 15 4 0 5 -13 9 -29 8
-16 0 -28 -2 -26 -5 2 -3 -3 -11 -11 -18 -8 -7 -14 -8 -14 -2 0 16 -19 12 -37
-10 -19 -21 -39 -28 -27 -8 4 7 3 8 -4 4 -7 -4 -12 -14 -12 -22 0 -17 -16 -19
-24 -1 -4 8 -5 7 -5 -3 2 -33 -2 -50 -12 -50 -5 0 -7 6 -3 13 4 6 3 9 -1 4 -5
-4 -10 -26 -11 -49 -1 -22 -8 -44 -14 -48 -8 -5 -6 -9 6 -14 16 -6 16 -8 4
-16 -12 -8 -9 -10 10 -11 23 0 23 -1 5 -9 -11 -5 -15 -9 -9 -9 7 -1 14 -8 17
-15 4 -11 1 -13 -11 -10 -15 5 -15 4 1 -9 18 -15 24 -32 7 -22 -6 3 -7 -1 -4
-9 3 -9 11 -16 16 -16 6 0 8 -9 5 -21 -4 -17 -3 -18 9 -8 12 10 13 9 8 -6 -5
-13 -4 -16 4 -11 7 4 12 2 12 -3 0 -6 -6 -11 -13 -11 -8 0 -14 -7 -14 -15 0
-11 4 -12 14 -4 15 13 15 13 18 -18 1 -12 -1 -20 -6 -17 -4 2 -5 12 -2 22 3 9
3 14 -1 10 -9 -8 -15 -58 -7 -55 3 1 7 -3 8 -8 1 -5 -6 -8 -15 -7 -12 3 -13 1
-5 -10 9 -10 7 -19 -8 -37 -18 -21 -24 -20 -19 4 1 5 -8 1 -19 -9 -11 -10 -24
-15 -30 -11 -7 4 -8 -1 -4 -12 6 -16 5 -17 -12 -3 -11 9 -16 10 -11 3 5 -9 -1
-13 -20 -13 -15 0 -24 -3 -20 -7 3 -4 -6 -13 -21 -20 -16 -7 -19 -11 -8 -8 19
5 19 4 3 -9 -10 -7 -18 -21 -18 -30 0 -9 -6 -16 -12 -16 -9 0 -8 -4 2 -10 13
-9 13 -11 0 -21 -12 -9 -11 -10 8 -6 12 3 20 1 16 -4 -3 -5 -13 -9 -22 -9 -16
-1 -16 -1 1 -11 9 -5 17 -15 17 -22 0 -7 -4 -6 -10 3 -6 10 -10 11 -10 3 0
-22 4 -28 18 -25 11 3 11 -1 2 -18 -11 -20 -10 -21 12 -16 12 3 17 3 10 0 -6
-3 -9 -11 -6 -16 4 -6 3 -8 -3 -5 -5 3 -10 0 -10 -8 0 -8 5 -11 10 -8 6 4 8 0
4 -10 -3 -9 -1 -19 5 -23 6 -4 8 -3 4 4 -3 6 -2 13 3 17 6 3 8 -4 6 -15 -2
-12 0 -32 5 -46 6 -14 7 -23 2 -21 -4 3 -7 -5 -7 -18 0 -17 3 -21 12 -13 9 7
10 2 3 -22 -7 -24 -6 -32 6 -37 13 -5 13 -7 2 -14 -11 -7 -11 -9 1 -9 11 0 11
-3 0 -17 -7 -10 -9 -15 -5 -11 5 5 15 -2 21 -15 10 -17 9 -27 -1 -44 -13 -20
-12 -22 3 -16 16 6 16 5 4 -10 -11 -14 -11 -17 0 -17 11 0 11 -2 -1 -10 -13
-9 -13 -10 0 -10 13 0 13 -1 0 -10 -12 -8 -12 -10 5 -10 11 0 16 -4 10 -8 -11
-8 -14 -133 -3 -126 4 2 10 -1 14 -8 4 -7 4 -10 -1 -6 -4 4 -14 3 -22 -3 -10
-9 -13 -8 -13 2 0 11 -2 11 -10 -1 -8 -13 -10 -12 -10 3 0 11 -4 15 -12 11 -8
-5 -9 -2 -5 9 3 9 -1 23 -9 32 -12 11 -12 15 -2 15 8 0 6 5 -5 11 -9 6 -15 14
-12 20 4 5 2 9 -3 9 -5 0 -16 15 -23 33 -15 35 -16 38 -24 85 -8 44 -43 102
-62 102 -8 0 -11 5 -8 10 3 6 -1 10 -9 10 -9 0 -16 5 -16 11 0 5 -4 8 -9 4 -5
-3 -18 5 -28 17 -10 13 -25 24 -33 26 -8 2 -22 9 -30 16 -20 16 -93 51 -102
48 -5 -1 -8 2 -8 8 0 5 -6 7 -13 4 -8 -3 -20 2 -27 11 -7 8 -21 15 -31 15 -11
0 -19 5 -19 10 0 6 -3 9 -7 8 -10 -3 -73 25 -73 32 0 3 -14 7 -31 8 -18 1 -36
5 -42 9 -14 8 -117 11 -117 3 0 -3 -13 -7 -30 -8 -16 -1 -30 1 -30 5 0 5 -13
9 -30 9 -19 1 -28 -2 -23 -10 4 -7 1 -7 -7 1 -9 9 -19 9 -33 2 -13 -8 -17 -8
-13 -1 3 6 2 13 -4 17 -5 3 -10 2 -10 -4 0 -6 -7 -8 -15 -5 -21 9 -51 -16 -33
-27 10 -7 8 -9 -5 -9 -10 0 -16 -4 -13 -9 3 -5 -1 -12 -10 -15 -8 -3 -13 -10
-9 -15 3 -5 -4 -12 -14 -16 -13 -4 -18 -11 -14 -22 4 -11 2 -14 -5 -9 -8 5
-12 0 -12 -12 0 -11 -7 -23 -16 -26 -9 -4 -14 -13 -10 -21 3 -8 1 -15 -4 -15
-6 0 -10 -6 -10 -14 0 -8 -6 -16 -14 -19 -17 -7 -17 -47 -1 -47 5 0 3 -5 -5
-10 -13 -9 -13 -10 0 -10 13 0 13 -1 0 -10 -10 -6 -11 -10 -2 -10 6 0 12 -6
12 -14 0 -8 7 -16 15 -20 8 -3 15 -11 15 -18 0 -9 -3 -8 -10 2 -5 8 -10 10
-10 4 0 -11 30 -41 37 -36 11 8 13 -1 3 -14 -11 -12 -11 -15 0 -12 8 2 14 -4
15 -12 1 -8 6 -14 13 -13 6 2 9 -4 6 -11 -3 -8 3 -23 13 -33 11 -11 17 -25 15
-31 -2 -7 1 -12 7 -12 6 0 7 -7 4 -17 -4 -10 -2 -14 4 -10 6 4 14 0 17 -9 4
-10 2 -13 -7 -8 -8 6 -8 3 1 -8 7 -9 17 -29 21 -45 5 -15 14 -27 20 -25 9 2
10 -5 6 -19 -5 -15 -4 -19 4 -15 7 4 11 -1 11 -13 0 -12 5 -21 10 -21 6 0 10
-7 10 -16 0 -8 4 -13 9 -10 5 3 12 -1 15 -10 4 -10 2 -13 -7 -9 -6 4 -3 -1 7
-9 15 -12 16 -16 5 -17 -8 0 -6 -4 6 -8 11 -5 20 -12 20 -17 0 -5 4 -15 9 -23
6 -10 5 -12 -2 -7 -8 5 -10 2 -6 -8 3 -9 9 -16 13 -16 4 0 13 -11 19 -24 8
-17 7 -27 -1 -35 -9 -9 -8 -10 7 -5 13 5 17 4 12 -4 -4 -7 -2 -12 5 -12 8 0 8
-4 -1 -16 -11 -13 -10 -16 9 -21 16 -4 20 -10 15 -25 -4 -13 -2 -18 4 -14 6 3
13 2 17 -4 3 -5 1 -10 -5 -10 -6 0 -4 -7 5 -16 9 -9 14 -23 11 -31 -3 -8 -2
-12 3 -9 5 3 15 -2 22 -11 8 -9 9 -14 3 -10 -6 3 -11 0 -11 -7 0 -8 7 -12 15
-8 10 3 13 1 8 -6 -4 -7 -2 -12 5 -12 8 0 7 -5 -2 -17 -8 -10 -9 -14 -2 -10
14 8 43 -29 43 -55 0 -9 8 -22 18 -27 10 -6 12 -11 4 -11 -10 0 -10 -3 0 -14
7 -8 16 -12 20 -9 4 2 5 -3 2 -12 -4 -9 4 -25 20 -40 22 -21 32 -49 27 -78 -1
-5 9 -6 21 -3 13 3 17 3 10 0 -10 -5 -10 -9 0 -22 11 -13 11 -15 -2 -8 -8 4
-7 1 3 -7 14 -11 15 -16 5 -20 -9 -4 -8 -6 3 -6 9 -1 20 -8 23 -17 4 -10 2
-13 -7 -8 -6 4 -2 -3 11 -15 24 -24 30 -39 9 -25 -7 5 -6 2 3 -6 9 -9 16 -24
14 -34 -2 -12 2 -16 12 -12 12 5 12 2 3 -15 -9 -17 -8 -20 2 -14 9 6 11 2 6
-14 -5 -19 -3 -21 11 -9 9 7 14 9 10 4 -4 -5 0 -22 8 -38 9 -17 11 -27 5 -24
-6 4 -11 2 -11 -3 0 -6 5 -11 11 -11 6 0 9 -8 7 -17 -2 -10 5 -26 14 -35 13
-13 15 -23 9 -40 -7 -18 -4 -29 13 -47 11 -13 15 -21 8 -16 -11 6 -12 3 -3
-12 6 -11 7 -24 3 -28 -4 -5 -2 -5 4 -2 10 6 23 -20 24 -45 0 -8 -20 -5 -45 9
-11 6 -54 22 -95 36 -41 14 -120 46 -175 72 -55 26 -174 71 -264 101 -144 48
-169 53 -215 47 -28 -4 -66 -7 -83 -7 -18 -1 -33 -5 -33 -9 0 -4 -6 -2 -14 5
-8 7 -11 18 -8 23 3 6 -1 4 -10 -3 -13 -10 -18 -10 -24 -1 -5 8 -3 9 6 4 8 -5
11 -4 7 3 -4 5 -17 8 -29 4 -11 -3 -19 -1 -16 4 3 5 -1 16 -10 24 -14 13 -15
12 -9 -4 6 -15 5 -17 -6 -8 -8 7 -18 8 -23 4 -4 -4 -2 2 6 12 8 11 10 17 3 13
-6 -4 -14 -1 -16 5 -4 10 -6 10 -6 0 -1 -10 -5 -9 -17 3 -9 9 -23 14 -31 10
-10 -3 -13 -1 -10 9 4 9 0 13 -11 11 -20 -3 -44 14 -36 26 3 5 -2 9 -10 9 -9
0 -16 5 -16 10 0 6 -9 10 -20 10 -11 0 -20 6 -20 14 0 7 -8 20 -17 27 -11 10
-14 10 -9 2 4 -7 2 -13 -3 -13 -6 0 -11 5 -11 11 0 6 -7 8 -17 5 -10 -4 -14
-4 -11 0 13 13 -12 43 -32 39 -18 -4 -25 6 -21 29 1 5 -6 3 -15 -5 -10 -8 -15
-9 -11 -3 4 6 -3 20 -16 30 -16 14 -18 14 -9 2 10 -12 10 -18 1 -24 -7 -4 -9
-3 -6 3 9 15 -41 66 -58 60 -9 -4 -12 0 -10 15 4 20 4 20 -18 2 -14 -12 -17
-13 -9 -3 14 19 7 29 -21 29 -12 0 -17 5 -14 14 4 10 0 12 -16 8 -20 -5 -21
-4 -7 13 14 17 14 18 -10 5 -14 -7 -22 -9 -18 -5 12 13 -12 35 -29 28 -11 -5
-14 -3 -8 6 6 10 3 11 -14 2 -23 -13 -41 -7 -40 12 0 9 2 9 6 0 2 -7 10 -13
16 -13 16 0 -9 23 -27 26 -10 1 -13 -4 -9 -14 4 -11 -3 -8 -19 8 -13 14 -22
29 -20 34 3 5 0 6 -7 2 -6 -4 -9 -11 -7 -15 3 -4 -2 -8 -10 -8 -8 0 -13 6 -10
13 9 24 -15 27 -36 4 -16 -17 -22 -19 -29 -8 -6 9 -9 6 -9 -12 0 -20 -2 -22
-10 -10 -7 11 -12 12 -20 4 -8 -8 -8 -14 -1 -18 12 -8 3 -36 -11 -36 -6 0 -4
8 3 18 13 15 12 16 -4 3 -13 -10 -15 -17 -6 -27 9 -11 7 -14 -7 -14 -16 0 -17
-2 -4 -10 13 -8 12 -10 -4 -10 -15 0 -16 -3 -6 -15 11 -13 10 -14 -5 -9 -11 5
-16 4 -12 -3 8 -13 -24 -13 -40 0 -9 6 -13 6 -13 -3 0 -8 -4 -9 -12 -3 -7 5
-28 8 -45 8 -18 -1 -33 3 -33 7 0 5 -4 7 -9 4 -5 -4 -11 -2 -13 4 -1 5 -15 11
-30 12 -16 1 -28 5 -28 9 0 4 -8 6 -17 4 -10 -2 -18 -4 -18 -5 0 -2 -38 -11
-53 -12 -6 -1 -10 -3 -8 -5 2 -2 -17 -25 -43 -50 -25 -25 -39 -43 -31 -39 8 4
6 0 -4 -8 -11 -9 -16 -16 -12 -16 4 0 1 -7 -8 -15 -8 -9 -13 -22 -10 -30 4 -8
0 -17 -8 -20 -8 -3 -15 -11 -15 -18 -1 -24 -8 -42 -23 -55 -13 -12 -13 -13 0
-6 12 7 13 5 3 -8 -7 -8 -10 -18 -6 -21 3 -4 1 -7 -6 -7 -7 0 -10 -4 -6 -9 3
-5 0 -13 -6 -16 -5 -4 -8 -14 -5 -22 4 -9 2 -11 -6 -7 -7 5 -9 0 -6 -14 4 -12
1 -20 -4 -19 -6 1 -13 -4 -16 -12 -3 -9 0 -11 7 -6 9 5 9 1 -1 -14 -7 -12 -16
-21 -20 -21 -4 0 -5 -7 -2 -15 4 -8 1 -15 -6 -15 -6 0 -10 -6 -8 -12 3 -7 -1
-19 -9 -26 -7 -8 -11 -18 -8 -23 4 -5 1 -9 -5 -9 -6 0 -9 -4 -5 -9 3 -5 2 -12
-3 -15 -10 -6 -8 -73 3 -101 12 -28 57 -69 80 -73 11 -2 24 -10 28 -18 5 -8
13 -12 18 -8 5 3 16 0 24 -6 8 -6 19 -9 25 -5 5 3 10 1 10 -5 0 -6 5 -8 10 -5
6 3 10 1 10 -4 0 -6 3 -10 8 -10 26 4 62 -3 57 -11 -3 -5 0 -10 8 -10 19 0 30
-27 14 -34 -7 -2 -4 -5 6 -5 10 -1 15 -6 12 -11 -4 -6 -11 -7 -17 -4 -7 4 -8
2 -4 -5 8 -13 -8 -32 -44 -51 -24 -13 -24 -12 -10 6 8 10 10 16 6 12 -5 -4
-16 -2 -24 5 -13 9 -14 9 -8 0 12 -21 -5 -15 -25 8 -9 11 -20 20 -23 20 -20
-3 -26 0 -21 9 3 6 -1 10 -10 10 -10 0 -14 -5 -10 -12 4 -7 0 -5 -8 4 -8 10
-17 15 -20 11 -4 -3 -7 -1 -7 5 0 7 -9 12 -20 12 -11 0 -20 4 -20 9 0 14 -29
21 -36 9 -5 -7 -2 -8 6 -3 9 5 11 4 6 -4 -4 -6 -12 -9 -17 -5 -5 3 -17 0 -26
-8 -14 -11 -16 -11 -8 1 6 10 4 12 -4 7 -7 -5 -10 -14 -7 -21 3 -9 -2 -11 -15
-8 -15 4 -18 2 -12 -12 4 -13 3 -16 -5 -11 -7 4 -12 2 -12 -4 0 -6 -4 -9 -9
-5 -5 3 -13 0 -17 -6 -5 -8 -3 -9 6 -4 8 5 11 3 8 -6 -3 -8 -11 -13 -18 -11
-10 2 -10 -1 1 -14 8 -10 9 -15 3 -11 -7 4 -17 0 -24 -8 -11 -13 -10 -15 6
-10 13 4 12 2 -3 -6 -25 -13 -30 -29 -10 -29 6 0 4 -5 -6 -11 -9 -5 -21 -8
-25 -5 -4 2 -9 -4 -9 -15 -2 -17 1 -19 15 -9 9 7 5 1 -9 -12 -21 -20 -24 -29
-16 -43 7 -14 7 -16 -3 -10 -10 6 -12 3 -6 -10 5 -15 4 -16 -8 -6 -13 11 -14
9 -10 -13 2 -15 0 -26 -6 -26 -6 0 -8 -4 -5 -10 3 -5 1 -10 -6 -10 -8 0 -7 -5
2 -17 10 -11 10 -14 1 -9 -7 4 -12 2 -12 -4 0 -6 -4 -9 -9 -6 -4 3 -6 -6 -3
-19 2 -15 0 -25 -7 -25 -6 0 -11 -10 -11 -23 0 -13 -6 -29 -12 -36 -10 -11
-10 -14 0 -18 6 -3 12 -9 12 -14 0 -6 -6 -7 -13 -3 -9 6 -9 4 1 -8 10 -13 10
-17 0 -21 -9 -4 -10 -8 -2 -14 15 -11 26 -55 11 -46 -7 4 -8 0 -3 -13 5 -10 9
-24 9 -31 0 -7 5 -9 10 -6 6 4 8 -1 4 -11 -5 -12 1 -20 18 -28 17 -7 21 -14
14 -19 -8 -4 -4 -9 10 -14 12 -3 18 -11 15 -17 -4 -6 1 -6 14 1 15 8 23 7 32
-4 10 -12 16 -13 28 -3 13 10 14 10 8 1 -9 -16 6 -17 21 -2 17 17 27 -9 29
-79 2 -35 5 -66 8 -69 3 -3 1 -14 -4 -24 -7 -12 -7 -20 0 -24 6 -4 7 -11 4
-17 -6 -10 -14 -62 -17 -123 -1 -16 -5 -34 -8 -40 -10 -17 0 -200 11 -200 1 0
3 -7 5 -15 5 -24 58 -134 72 -148 12 -13 17 -27 14 -44 0 -4 6 -5 14 -2 13 5
20 -6 16 -28 0 -4 8 -5 19 -3 19 4 24 -5 21 -30 -1 -5 6 -1 14 9 13 18 20 15
16 -7 -1 -4 8 -3 19 3 16 9 22 8 27 -6 6 -15 7 -15 20 2 7 10 13 14 13 8 0 -5
4 -15 9 -23 8 -13 12 -13 27 0 11 9 15 9 10 2 -11 -19 29 -16 48 3 22 21 20 6
-1 -20 -18 -20 -17 -20 2 -6 11 8 23 20 27 25 5 6 8 5 8 -2 0 -7 3 -12 8 -12
26 4 44 -3 39 -15 -4 -11 -1 -13 11 -9 9 4 21 11 25 17 5 6 5 1 2 -11 -5 -17
-2 -23 10 -23 10 0 13 5 9 12 -4 7 -3 8 4 4 6 -4 8 -14 5 -23 -5 -13 -1 -15
20 -11 22 4 25 3 16 -8 -9 -11 -8 -14 5 -14 9 0 16 5 16 12 0 6 3 8 6 5 4 -4
1 -14 -7 -23 -13 -16 -11 -17 16 -10 27 7 28 6 11 -7 -17 -13 -17 -14 -2 -20
12 -5 15 -3 10 6 -5 9 -4 9 6 0 7 -7 14 -27 15 -46 3 -34 2 -34 -23 -21 -14 7
-29 11 -34 8 -4 -3 -8 0 -8 6 0 6 -4 8 -10 5 -5 -3 -10 -2 -10 4 0 6 -7 8 -15
5 -8 -4 -15 -1 -15 7 0 7 -3 10 -6 7 -3 -3 -31 3 -62 14 -31 11 -77 22 -102
25 -25 3 -50 9 -56 14 -6 5 -15 4 -21 -2 -7 -7 -17 -8 -25 -3 -17 11 -54 19
-125 26 -7 1 -13 5 -13 9 0 5 -7 6 -15 3 -9 -4 -18 1 -21 11 -4 9 -12 14 -19
11 -7 -2 -16 -2 -19 2 -4 3 -19 8 -34 10 -15 2 -29 7 -30 13 -2 5 -8 7 -13 3
-5 -3 -9 0 -9 5 0 6 -6 10 -12 8 -7 -1 -12 4 -11 11 2 6 -1 12 -6 12 -5 0 -17
7 -25 16 -11 10 -16 11 -16 3 0 -7 -9 -1 -21 12 -12 13 -25 23 -30 22 -5 -2
-9 2 -9 7 0 6 -7 10 -16 10 -8 0 -12 4 -9 10 3 5 0 7 -8 4 -8 -3 -17 2 -21 11
-4 11 -12 15 -22 11 -12 -5 -15 -2 -10 9 3 9 2 14 -3 11 -5 -3 -14 1 -21 9 -6
7 -17 12 -24 9 -7 -3 -19 2 -26 11 -8 10 -17 12 -24 6 -17 -14 -28 -14 -37 1
-7 10 -9 10 -9 0 0 -7 -5 -10 -12 -6 -7 4 -8 3 -4 -5 4 -6 0 -14 -8 -17 -9 -3
-14 -10 -11 -14 3 -5 1 -11 -4 -15 -6 -3 -7 -13 -4 -22 5 -12 3 -14 -8 -8 -12
8 -12 6 0 -9 8 -10 15 -30 15 -46 1 -16 4 -32 8 -35 4 -4 3 -16 -3 -26 -7 -13
-6 -19 2 -19 6 0 9 -6 6 -14 -3 -7 0 -19 6 -25 8 -8 8 -11 -2 -11 -9 0 -10 -4
-4 -12 5 -7 8 -23 7 -35 0 -13 3 -23 9 -23 5 0 4 -7 -3 -15 -7 -9 -8 -15 -2
-15 12 0 11 -18 -2 -39 -7 -11 -5 -13 5 -9 10 4 15 -1 15 -13 0 -11 -3 -19 -6
-19 -3 0 -6 -9 -6 -19 0 -11 4 -17 8 -15 4 3 8 0 8 -5 0 -6 -6 -11 -12 -11
-10 0 -9 -3 1 -9 9 -6 10 -10 2 -16 -9 -5 -9 -10 -1 -20 8 -10 8 -15 0 -20 -8
-5 -7 -11 2 -23 8 -9 8 -13 2 -9 -15 9 -26 -17 -12 -31 6 -6 6 -12 -1 -16 -6
-4 -11 -12 -11 -17 0 -6 5 -7 11 -3 8 5 9 2 1 -12 -7 -13 -6 -24 5 -40 8 -13
11 -29 7 -35 -4 -8 -3 -9 4 -5 7 4 12 1 12 -9 0 -9 6 -23 13 -30 30 -34 37
-45 30 -45 -4 0 1 -6 12 -13 14 -11 15 -16 5 -22 -9 -6 -11 -4 -5 5 5 9 4 11
-4 6 -9 -6 -9 -11 1 -24 10 -13 10 -14 0 -8 -9 6 -11 1 -8 -18 3 -19 1 -23
-10 -19 -16 6 -16 -17 1 -30 6 -5 0 -7 -13 -4 -19 4 -21 3 -12 -8 8 -10 8 -19
0 -36 -10 -17 -9 -23 1 -30 12 -7 12 -9 0 -9 -11 0 -11 -3 -1 -15 7 -9 10 -18
6 -22 -3 -3 -6 0 -7 8 -1 8 -4 3 -8 -11 -9 -31 -2 -62 11 -54 6 4 5 -2 -1 -14
-14 -26 -14 -35 -1 -27 14 9 12 -8 -2 -24 -11 -11 -10 -13 3 -8 13 4 16 1 12
-16 -4 -18 -3 -19 6 -7 7 9 11 10 11 3 0 -6 -5 -15 -11 -18 -6 -5 -4 -12 8
-21 10 -7 14 -14 8 -14 -5 0 -3 -5 5 -11 13 -10 13 -10 -1 -6 -9 3 -16 -1 -16
-9 0 -13 11 -18 30 -15 4 1 3 -8 -3 -19 -6 -11 -7 -20 -3 -19 22 4 43 -2 43
-12 0 -5 -6 -7 -12 -3 -8 4 -10 3 -5 -2 5 -5 13 -10 18 -10 5 -1 11 -3 14 -4
3 -1 14 -4 25 -5 11 -1 21 -4 23 -5 6 -6 165 -4 161 2 -2 4 0 9 6 13 5 3 10 2
10 -3 0 -6 7 -13 16 -16 14 -5 15 -4 5 8 -10 12 -9 14 6 12 10 -2 32 0 50 4
27 7 35 4 48 -16 17 -27 19 -38 5 -29 -6 3 -10 -1 -10 -10 0 -9 -4 -14 -8 -11
-13 8 -12 -38 1 -47 7 -5 0 -6 -18 -3 -16 3 -24 3 -17 0 6 -3 9 -11 6 -16 -4
-6 -3 -8 3 -5 19 12 9 -23 -11 -40 -21 -18 -21 -18 -2 5 11 12 15 22 10 22 -5
0 -18 -12 -28 -27 -11 -14 -15 -24 -10 -20 6 3 16 2 24 -4 11 -6 12 -9 2 -9
-7 0 -11 -4 -7 -9 3 -5 0 -13 -6 -17 -7 -4 -9 -3 -5 4 3 6 1 14 -6 18 -7 4
-10 4 -6 -1 4 -4 2 -15 -5 -23 -8 -10 -8 -13 -1 -9 22 13 26 -27 5 -44 -18
-14 -18 -18 -5 -23 8 -3 12 -2 9 4 -3 6 -1 10 5 10 7 0 10 -6 7 -12 -2 -7 -10
-12 -17 -10 -8 2 -10 -6 -5 -28 5 -21 3 -30 -6 -30 -7 0 -9 -3 -5 -7 4 -5 15
1 23 12 14 17 15 17 9 2 -7 -20 20 -80 33 -73 4 3 8 -1 8 -9 0 -8 -3 -12 -7
-10 -3 2 -12 0 -20 -6 -12 -7 -10 -9 8 -9 25 0 28 -10 10 -29 -7 -7 -8 -12 -3
-11 22 5 36 -1 30 -10 -4 -6 -3 -10 2 -9 19 3 34 -2 29 -10 -7 -11 13 -9 33 4
10 5 16 4 19 -3 2 -7 8 -10 13 -7 5 4 6 0 3 -8 -3 -8 1 -14 10 -14 8 0 13 4
10 9 -3 4 2 5 10 2 8 -3 12 -13 9 -22 -4 -13 -3 -14 5 -3 6 8 15 10 23 5 11
-6 12 -5 2 7 -10 13 -10 16 2 16 14 0 19 -11 16 -30 -1 -5 3 -6 9 -2 6 4 8 16
4 28 -6 22 -6 22 11 0 9 -13 22 -23 28 -23 7 0 6 4 -3 10 -8 5 -12 11 -10 14
3 2 22 -10 42 -27 20 -18 57 -49 81 -70 25 -21 56 -48 69 -61 50 -49 81 -60
215 -75 6 0 14 -9 16 -18 4 -17 5 -17 6 0 0 10 6 15 11 12 6 -4 8 -10 5 -15
-9 -15 37 -23 47 -9 8 11 9 10 5 -3 -5 -15 17 -34 36 -29 5 1 6 -3 2 -9 -5 -8
-12 -7 -23 2 -16 12 -16 11 -2 -7 23 -31 44 -45 58 -40 7 3 10 0 6 -6 -3 -6
-14 -9 -24 -6 -13 3 -16 0 -13 -17 4 -17 3 -18 -6 -6 -10 13 -11 13 -12 0 -1
-8 -1 -19 0 -23 1 -5 -3 -6 -8 -2 -6 3 -8 13 -4 23 3 11 0 9 -11 -5 -10 -13
-22 -23 -28 -23 -6 0 -5 7 3 18 12 15 12 16 -2 5 -9 -7 -19 -10 -22 -6 -4 3
-9 -1 -13 -10 -3 -9 -12 -13 -20 -10 -8 3 -11 10 -7 17 4 6 -1 5 -10 -3 -12
-9 -17 -10 -17 -2 0 7 -4 10 -9 6 -5 -3 -16 1 -24 9 -11 11 -17 12 -26 3 -10
-9 -12 -9 -9 3 2 9 -4 14 -14 14 -10 -1 -18 4 -18 12 0 8 -6 11 -17 7 -11 -4
-14 -3 -9 5 5 8 0 12 -13 12 -12 0 -21 5 -21 11 0 5 -4 8 -9 4 -5 -3 -16 2
-24 10 -12 11 -17 12 -20 2 -4 -9 -6 -9 -6 1 -1 6 -6 12 -12 12 -5 0 -7 -6 -3
-12 5 -10 4 -10 -6 -1 -7 6 -19 9 -28 6 -11 -5 -13 -3 -7 7 6 10 4 12 -8 7 -9
-3 -18 -1 -21 6 -3 9 -5 8 -5 -1 -1 -10 -6 -10 -22 -2 -11 7 -27 9 -35 6 -8
-3 -14 1 -14 11 0 13 -3 13 -15 3 -10 -9 -15 -9 -15 -1 0 6 -9 11 -21 11 -13
0 -18 4 -13 13 5 7 0 6 -11 -3 -17 -13 -18 -13 -13 1 4 9 1 16 -8 16 -7 0 -11
-5 -8 -11 3 -6 -1 -3 -9 7 -11 14 -16 15 -20 5 -4 -11 -6 -11 -6 0 -1 7 -6 10
-11 7 -5 -3 -10 -1 -10 6 0 7 -3 9 -7 6 -3 -4 -13 -1 -21 6 -13 10 -14 9 -7
-3 6 -10 2 -10 -12 3 -12 11 -27 15 -38 11 -13 -5 -16 -4 -11 4 5 8 -3 12 -23
13 -43 2 -48 3 -56 11 -4 4 -13 4 -21 1 -9 -3 -14 2 -15 13 0 18 -1 17 -9 -1
-7 -19 -8 -19 -15 -2 -6 14 -10 15 -21 6 -8 -7 -17 -9 -21 -5 -3 3 -1 6 6 6 9
0 9 4 -1 14 -9 10 -15 11 -20 2 -6 -8 -8 -8 -8 2 0 6 -9 12 -20 12 -12 0 -20
7 -21 18 0 11 -2 13 -6 4 -4 -10 -9 -8 -19 6 -9 13 -23 19 -39 17 -19 -2 -23
1 -15 10 14 16 0 27 -17 13 -11 -8 -12 -7 -7 5 4 12 1 15 -16 12 -16 -3 -20 0
-16 10 3 10 0 12 -11 8 -13 -5 -15 -2 -10 12 6 15 5 16 -8 5 -12 -10 -15 -9
-15 6 0 16 -2 17 -10 4 -8 -13 -10 -13 -10 2 0 11 -6 15 -20 11 -15 -4 -20 0
-20 13 0 14 -2 16 -9 6 -6 -11 -10 -10 -15 3 -3 10 -12 15 -21 11 -8 -3 -15
-1 -15 4 0 6 -5 10 -11 10 -5 0 -8 -4 -5 -9 4 -5 -4 -7 -16 -3 -16 4 -19 2
-13 -9 8 -12 6 -12 -9 0 -9 8 -16 10 -15 5 4 -17 -13 -44 -25 -37 -6 3 -6 1 1
-8 17 -17 17 -32 1 -23 -7 4 -10 4 -6 -1 4 -4 3 -14 -3 -21 -7 -8 -6 -14 2
-20 8 -4 9 -3 5 4 -4 7 -2 12 3 12 23 0 9 -20 -28 -41 -37 -20 -61 -53 -61
-83 0 -7 10 -35 22 -62 20 -45 42 -117 54 -172 3 -17 1 -22 -8 -16 -10 6 -9 3
1 -9 11 -14 11 -17 0 -17 -11 0 -11 -2 1 -10 12 -8 12 -10 1 -10 -8 0 -12 -3
-8 -6 3 -3 2 -17 -4 -31 -5 -13 -5 -22 -1 -19 5 3 9 -1 9 -9 0 -8 -4 -12 -8
-10 -4 3 -10 -2 -13 -11 -4 -10 -2 -13 7 -8 8 5 7 2 -2 -9 -11 -14 -11 -17 0
-17 9 -1 8 -5 -5 -15 -20 -15 -20 -15 0 -16 19 0 19 -1 0 -8 -13 -5 -16 -10
-8 -15 6 -3 9 -13 5 -21 -3 -9 1 -23 8 -32 12 -14 12 -15 1 -9 -11 7 -12 4 -3
-13 7 -11 16 -21 21 -21 6 0 10 -5 10 -11 0 -14 25 -39 39 -39 6 0 11 -3 12
-7 1 -5 3 -28 5 -52 3 -43 23 -101 35 -101 3 0 14 -8 25 -17 10 -10 30 -24 44
-31 36 -19 80 -55 57 -48 -12 4 -16 2 -11 -6 13 -21 13 -58 -1 -58 -8 0 -17
-5 -21 -12 -4 -7 -3 -8 4 -4 7 4 12 1 12 -8 0 -8 -5 -18 -12 -22 -7 -5 -8 -3
-3 7 8 12 6 12 -8 0 -18 -15 -23 -26 -7 -16 5 3 10 1 10 -5 0 -6 5 -8 12 -4 7
5 8 3 4 -5 -5 -7 -14 -10 -20 -8 -7 3 -13 -1 -13 -9 0 -8 7 -14 14 -14 8 0 11
-5 8 -10 -4 -6 -10 -8 -14 -6 -4 3 -8 -2 -8 -10 0 -9 6 -13 14 -10 8 3 12 2 8
-3 -3 -5 -2 -11 2 -14 5 -2 3 -3 -3 -1 -6 1 -11 -4 -11 -11 0 -8 3 -14 6 -13
20 2 31 -3 26 -12 -4 -6 5 -10 20 -10 18 0 24 -4 19 -12 -4 -7 3 -3 15 9 12
13 28 20 36 17 8 -4 21 -1 29 5 11 9 18 8 30 -4 9 -9 16 -12 16 -6 0 6 9 15
21 22 17 9 25 7 47 -13 15 -12 21 -16 14 -7 -11 15 -8 16 35 11 27 -3 51 -9
54 -15 4 -5 9 -5 13 2 4 6 13 11 19 11 7 0 6 -4 -3 -10 -13 -8 -12 -10 3 -10
10 0 16 -4 13 -9 -7 -11 45 -8 63 3 10 7 12 6 6 -4 -6 -10 -4 -12 8 -7 9 3 19
2 22 -4 4 -5 12 -6 18 -2 7 3 3 -3 -7 -15 -11 -12 -14 -22 -8 -22 6 0 12 5 14
12 3 8 13 8 36 -3 18 -8 30 -19 28 -25 -3 -7 6 -10 20 -8 21 2 24 -1 18 -18
-4 -14 -2 -18 5 -14 6 4 11 0 11 -9 0 -9 3 -14 8 -12 12 8 11 -47 -1 -62 -10
-12 -9 -13 2 -6 10 5 12 4 7 -3 -4 -7 -14 -12 -22 -12 -8 0 -12 -5 -9 -10 4
-6 11 -7 17 -4 7 4 8 2 4 -5 -4 -6 -12 -9 -17 -6 -15 10 -49 -5 -49 -21 0 -8
-5 -12 -10 -9 -6 4 -7 11 -4 17 4 7 2 8 -5 4 -6 -4 -9 -12 -6 -17 4 -5 1 -9
-4 -9 -6 0 -11 5 -11 10 0 6 -5 10 -11 10 -5 0 -8 -4 -5 -8 7 -12 -48 -10 -56
2 -5 7 -8 5 -8 -4 0 -13 -1 -13 -10 0 -8 13 -10 12 -10 -2 0 -10 -5 -18 -11
-18 -5 0 -7 5 -4 10 3 6 1 10 -4 10 -6 0 -11 -5 -11 -11 0 -5 -5 -7 -12 -3 -8
5 -9 1 -5 -12 7 -18 7 -18 -8 0 -15 20 -15 20 -16 0 0 -18 -1 -18 -9 1 -6 13
-9 15 -9 5 -1 -25 -207 -19 -292 8 -37 11 -75 19 -85 17 -11 -2 -24 -4 -31 -4
-6 -1 -15 -10 -18 -22 -4 -12 -13 -18 -20 -15 -10 3 -12 -1 -9 -12 5 -15 4
-15 -6 1 -6 9 -15 15 -21 12 -5 -4 -9 -1 -9 5 0 6 -5 8 -10 5 -5 -3 -10 -1
-10 4 0 6 -8 11 -18 11 -10 0 -24 6 -31 13 -11 10 -12 9 -6 -2 6 -11 3 -13
-13 -9 -12 4 -26 0 -33 -8 -6 -8 -15 -11 -20 -8 -5 2 -11 -7 -15 -21 -3 -13
-9 -23 -13 -21 -9 6 -8 -60 1 -69 4 -4 3 -16 -3 -26 -5 -11 -6 -19 -1 -19 4 0
8 -8 9 -17 3 -32 8 -58 13 -63 3 -3 11 -16 18 -29 11 -19 11 -22 0 -15 -7 4
-5 -2 5 -13 9 -11 14 -23 10 -26 -3 -4 -1 -7 5 -7 7 0 12 -9 12 -20 0 -11 4
-20 8 -20 5 0 9 -7 10 -15 1 -8 3 -22 4 -30 1 -8 4 -15 8 -15 4 0 6 -18 6 -41
-1 -22 2 -43 6 -45 4 -3 5 -13 3 -24 -2 -11 2 -20 8 -20 8 0 8 -3 -1 -9 -15
-9 -15 -20 -1 -38 6 -7 6 -13 0 -17 -5 -3 -8 -19 -7 -36 1 -16 -3 -30 -8 -30
-6 0 -4 -5 4 -10 10 -6 11 -10 3 -10 -8 0 -11 -9 -9 -22 2 -13 -2 -29 -8 -37
-9 -12 -8 -13 3 -6 11 6 13 3 9 -13 -4 -12 -2 -22 2 -22 4 0 6 -9 3 -20 -3
-11 0 -20 6 -20 6 0 11 -9 11 -20 0 -11 5 -20 11 -20 5 0 7 6 3 13 -4 6 5 1
21 -13 16 -14 24 -18 20 -10 -7 12 -6 13 6 3 8 -6 27 -10 42 -9 15 2 27 -2 27
-8 0 -8 2 -8 8 0 4 6 17 10 29 9 13 -1 23 2 23 7 0 5 8 5 18 1 21 -10 43 -10
60 0 6 5 12 4 12 -2 0 -6 11 -6 29 -1 16 4 32 5 36 2 11 -11 35 -10 35 1 0 8
3 7 9 -1 4 -8 11 -13 15 -13 3 1 20 -5 36 -14 34 -18 48 -19 158 -9 56 5 82 4
82 -4 0 -6 9 -9 20 -7 11 2 26 -2 34 -10 7 -8 16 -11 20 -8 3 4 6 1 6 -6 0 -7
3 -10 8 -8 4 3 13 -1 20 -9 7 -8 9 -14 5 -14 -4 0 -2 -4 6 -9 15 -10 20 -27
23 -74 0 -15 5 -30 10 -33 4 -3 6 -10 2 -15 -8 -14 -11 -78 -3 -73 4 2 9 -5
12 -16 3 -13 1 -18 -6 -13 -9 5 -9 3 -1 -8 5 -8 10 -26 9 -41 0 -16 3 -28 8
-28 4 0 5 -5 2 -10 -3 -6 0 -10 7 -10 9 0 9 -3 -2 -10 -8 -5 -10 -10 -4 -10 6
0 11 -7 12 -15 1 -8 3 -22 4 -30 1 -8 5 -15 10 -15 5 0 6 -4 3 -10 -3 -5 -1
-10 4 -10 6 0 11 -7 11 -15 0 -18 20 -57 35 -67 6 -4 7 -8 3 -8 -4 0 3 -21 17
-47 13 -26 21 -51 19 -55 -3 -4 0 -8 5 -8 6 0 10 -3 9 -7 -4 -14 13 -53 23
-53 5 0 9 -7 9 -15 0 -8 5 -15 10 -15 6 0 10 -6 10 -12 0 -15 46 -53 98 -81
20 -11 40 -23 43 -28 3 -5 17 -10 32 -11 15 -1 27 -6 27 -10 0 -5 33 -8 73 -7
95 1 106 -1 147 -33 44 -33 181 -107 209 -113 12 -2 42 2 66 10 32 9 43 10 38
2 -12 -19 -12 -37 -1 -37 6 0 8 -7 4 -15 -3 -10 1 -15 12 -15 15 0 15 -2 2
-10 -12 -8 -12 -10 -1 -10 11 0 11 -3 0 -17 -12 -15 -12 -16 4 -10 15 6 17 3
12 -13 -5 -15 -2 -20 12 -20 15 0 16 -2 3 -10 -11 -7 -11 -10 -2 -10 7 0 11
-4 7 -9 -3 -5 -1 -12 5 -16 5 -3 10 -15 10 -26 0 -11 4 -18 9 -15 5 3 12 -1
15 -10 4 -10 2 -13 -7 -9 -6 4 -4 0 5 -8 10 -8 14 -18 10 -22 -4 -5 2 -5 12
-1 14 5 16 3 8 -6 -11 -14 10 -43 22 -31 3 4 6 -1 6 -10 0 -11 8 -17 23 -17
14 0 18 -3 10 -8 -8 -5 -9 -13 -3 -22 7 -11 10 -12 10 -2 0 7 5 10 10 7 6 -4
8 -10 5 -15 -3 -5 0 -12 6 -16 8 -4 9 -3 5 4 -11 19 5 14 21 -5 8 -10 12 -12
8 -6 -4 9 -1 11 9 7 9 -3 13 -11 9 -17 -4 -6 2 -8 15 -5 13 4 20 2 19 -6 -1
-6 6 -10 17 -8 11 2 15 -1 11 -7 -3 -6 5 -15 19 -21 14 -5 26 -14 26 -20 0 -6
5 -8 10 -5 6 3 10 2 10 -3 0 -12 112 -34 134 -26 9 3 16 2 16 -4 0 -5 11 -8
25 -7 14 2 27 -1 31 -6 3 -5 11 -6 17 -2 7 4 21 9 32 10 11 2 39 12 62 23 24
11 47 20 53 20 5 0 24 8 43 19 33 18 33 18 60 -5 17 -14 34 -21 44 -17 13 5
15 2 10 -11 -4 -10 -3 -15 3 -11 6 3 10 1 10 -5 0 -6 4 -8 10 -5 6 3 7 -1 4
-9 -3 -9 -11 -13 -18 -10 -6 3 0 -4 14 -16 14 -12 19 -19 13 -15 -7 3 -13 2
-13 -3 0 -6 7 -13 16 -16 12 -5 14 -9 5 -20 -9 -10 -7 -16 4 -26 9 -7 14 -19
11 -27 -3 -8 -1 -11 4 -8 6 3 10 -1 10 -10 0 -9 5 -13 10 -10 6 3 10 -2 10
-12 0 -10 9 -25 19 -33 11 -7 17 -18 14 -23 -3 -6 -1 -7 4 -4 14 9 85 -27 76
-38 -4 -5 0 -3 10 4 10 8 17 9 17 3 0 -6 9 -9 20 -7 11 2 20 0 20 -4 0 -5 12
-6 26 -3 21 4 25 2 19 -9 -6 -11 -5 -12 6 -1 18 17 29 15 29 -5 0 -15 2 -16
10 -3 8 13 10 12 10 -2 0 -11 8 -18 20 -18 12 0 20 -7 20 -16 0 -12 6 -15 20
-11 17 4 20 2 15 -16 -4 -12 -3 -17 2 -11 4 6 16 11 25 11 15 0 15 -3 5 -16
-10 -12 -9 -14 6 -8 14 5 20 1 25 -15 5 -21 6 -21 13 -2 6 16 8 16 8 2 1 -11
8 -16 20 -13 15 3 18 -1 14 -13 -5 -14 -3 -15 7 -5 11 10 16 9 27 -5 10 -12
12 -12 8 -2 -4 8 2 6 12 -6 14 -16 24 -19 41 -13 14 5 21 4 19 -2 -1 -6 9 -15
23 -20 24 -9 24 -8 6 6 -27 21 -6 19 24 -2 32 -22 61 -27 72 -11 6 10 8 8 8
-4 0 -12 5 -15 17 -11 12 5 14 3 8 -8 -8 -12 -6 -12 8 0 16 12 22 8 18 -12 -1
-5 3 -6 9 -2 6 3 8 11 5 16 -4 5 -1 9 4 9 6 0 11 -3 11 -8 0 -4 10 -13 23 -21
20 -13 21 -13 8 2 -15 19 -1 23 17 5 9 -9 12 -9 12 1 0 7 5 9 10 6 6 -4 7 -12
3 -18 -4 -7 0 -6 10 2 12 10 17 10 17 2 0 -8 8 -10 19 -6 38 12 61 14 56 4 -9
-13 9 -11 24 4 8 6 11 7 8 1 -4 -6 8 -10 33 -10 24 0 36 4 32 11 -3 5 2 4 11
-4 14 -11 17 -11 17 0 0 11 2 11 9 0 8 -13 12 -13 27 0 16 13 17 12 10 -6 -6
-17 -3 -16 20 5 l27 25 -13 -25 c-12 -23 -12 -24 3 -12 9 8 21 11 26 8 5 -4
13 -1 17 5 5 8 3 9 -6 4 -9 -6 -11 -4 -5 5 6 10 11 9 22 -5 8 -12 13 -14 13
-6 0 9 9 12 26 8 16 -3 24 0 21 7 -3 6 6 12 19 12 13 1 24 -2 24 -8 0 -5 5 -6
10 -3 6 4 7 11 4 17 -4 6 1 6 14 -1 25 -13 35 -14 28 -2 -3 5 1 11 9 15 8 3
17 1 21 -5 4 -6 11 -6 19 1 8 7 20 8 26 4 8 -4 9 -3 5 4 -5 8 0 11 16 8 15 -2
30 4 41 18 10 11 16 16 13 9 -4 -7 1 -11 13 -10 12 1 17 6 13 15 -4 12 -1 12
17 3 12 -7 21 -8 20 -4 -3 20 2 27 11 13 8 -13 10 -13 10 2 0 9 5 20 12 24 7
4 8 3 4 -4 -9 -15 -5 -15 28 -2 19 7 24 14 19 27 -5 16 -4 16 9 -1 15 -19 15
-19 26 0 6 10 12 15 12 9 0 -5 5 -3 10 5 9 13 10 13 10 0 0 -9 8 -3 19 13 15
23 19 26 25 12 5 -15 8 -15 27 -1 12 8 28 12 37 9 11 -5 13 -3 7 7 -6 10 -4
11 6 4 23 -14 42 -14 30 0 -7 8 -5 12 9 12 10 0 16 -5 12 -11 -3 -5 1 -4 10 2
8 7 18 10 21 6 4 -3 15 2 26 11 12 11 21 14 26 7 4 -8 12 -8 26 -1 11 6 17 15
15 19 -3 5 6 7 19 5 14 -1 23 2 19 7 -5 8 10 13 30 10 5 -1 6 5 3 13 -4 11 0
14 14 11 17 -4 19 -2 8 11 -10 12 -9 13 4 9 8 -4 18 -1 23 6 5 8 3 10 -7 5 -8
-4 -5 0 5 8 11 9 24 16 29 16 4 0 5 5 1 12 -5 8 -2 9 10 5 10 -4 15 -3 11 4
-9 14 15 40 29 32 7 -4 7 -1 -1 8 -14 17 0 39 24 39 7 0 12 6 11 12 -2 7 2 12
9 11 6 -1 14 4 17 13 4 9 2 12 -5 8 -7 -4 -10 -1 -7 7 3 8 11 14 19 14 8 1 13
7 11 14 -1 7 2 19 8 25 5 7 9 15 7 17 -1 2 4 -2 11 -10 14 -17 16 -3 3 19 -7
10 -4 18 9 27 12 9 17 20 13 30 -5 13 -2 15 12 10 16 -7 16 -5 4 10 -12 15
-12 16 5 10 17 -7 17 -6 5 10 -12 15 -12 16 3 10 13 -5 16 -1 12 19 -3 17 -1
23 6 19 6 -4 10 -3 9 2 -3 11 19 63 26 63 4 0 4 -4 1 -8 -3 -4 13 -8 35 -8 21
1 39 4 39 9 0 4 5 7 11 7 5 0 7 -6 3 -12 -6 -10 -4 -10 8 0 13 10 17 10 21 0
4 -10 8 -10 16 2 10 13 12 13 21 0 6 -10 10 -11 10 -2 0 6 3 11 8 11 18 -3 33
2 28 10 -3 4 5 7 19 6 16 -2 22 1 19 10 -3 7 2 15 11 19 11 4 14 2 9 -7 -4 -6
2 -3 13 8 11 11 18 24 15 29 -3 5 2 6 12 3 11 -4 15 -3 11 4 -4 6 1 17 11 25
11 9 13 12 6 9 -11 -6 -11 -3 0 16 7 13 18 27 23 31 6 5 4 8 -5 8 -11 0 -12 2
-3 8 7 4 14 17 16 27 1 11 6 26 11 34 5 8 3 16 -5 22 -11 7 -11 9 3 9 9 0 20
5 24 12 4 7 3 8 -4 4 -14 -8 -12 20 2 43 7 10 5 12 -5 7 -8 -4 -5 0 5 8 11 9
15 16 9 16 -17 0 -4 38 15 46 10 3 31 8 48 9 17 1 40 7 51 13 11 6 23 8 27 5
3 -3 6 -2 6 3 0 5 9 10 20 11 11 1 27 9 36 17 8 9 23 21 32 28 21 15 66 78 56
78 -3 0 -1 7 6 15 7 8 9 15 5 15 -4 0 -1 8 6 17 12 15 12 16 -1 8 -12 -7 -13
-6 -4 6 15 19 31 83 39 164 2 16 4 32 5 35 1 3 2 8 2 11 -1 4 12 5 28 4 17 -1
30 2 30 7 0 5 4 6 10 3 6 -4 7 1 3 12 -6 15 -4 16 9 5 17 -14 34 0 23 18 -3 6
1 7 9 4 9 -3 16 -1 16 6 0 6 4 9 8 6 5 -3 9 1 9 9 0 8 -4 12 -9 9 -4 -3 -8 -1
-8 4 0 6 8 13 17 16 15 6 15 8 3 16 -10 7 -11 10 -2 10 6 0 12 5 12 11 0 5 -4
8 -8 5 -4 -2 -8 6 -8 20 0 13 4 24 9 24 4 0 6 4 2 9 -3 5 -1 12 5 16 6 4 5 13
-3 26 -10 16 -9 21 3 29 13 8 8 14 -10 12 -3 0 -6 8 -6 18 0 11 5 16 15 12 11
-4 12 -1 4 12 -11 20 -5 66 8 66 5 0 6 -8 3 -17 -5 -15 -4 -16 5 -3 6 9 7 18
1 24 -14 14 -12 50 2 64 9 9 9 15 2 20 -11 8 -14 53 -2 46 4 -2 6 4 5 15 -1
16 -4 18 -16 8 -12 -10 -13 -9 -1 12 11 21 10 23 -3 18 -11 -4 -14 -2 -10 8 3
8 10 12 17 8 6 -4 5 1 -3 10 -7 9 -10 17 -5 17 4 0 -1 7 -12 15 -19 15 -19 15
1 9 17 -4 16 -3 -3 8 -18 11 -20 16 -10 27 10 11 10 12 1 7 -7 -4 -13 -2 -13
4 0 6 -5 8 -12 4 -8 -5 -8 -2 1 10 8 9 10 16 5 15 -23 -4 -34 3 -34 20 0 11
-5 23 -12 27 -6 4 -8 3 -5 -3 3 -5 0 -10 -7 -10 -14 0 -16 21 -3 33 4 4 2 13
-5 21 -9 11 -7 15 10 20 12 3 19 10 16 15 -4 6 1 6 13 0 11 -6 25 -7 33 -2 9
5 19 5 26 -1 9 -8 11 -4 7 13 -5 23 -5 23 10 3 15 -18 16 -18 17 -2 0 9 4 17
10 17 5 0 7 -6 4 -13 -3 -8 2 -14 10 -14 8 0 12 5 9 10 -4 6 3 8 15 5 14 -4
20 -2 15 5 -4 7 0 8 13 3 15 -6 17 -5 7 5 -19 19 -16 34 4 18 15 -13 15 -12 3
11 -12 23 -12 24 4 11 14 -12 16 -12 11 2 -4 8 -2 18 4 21 7 5 7 13 -1 26 -7
10 -16 16 -22 13 -5 -4 -6 -1 0 8 5 8 9 19 9 24 1 6 6 9 13 7 7 -1 12 6 13 15
0 11 3 13 6 5 2 -6 9 -10 14 -6 17 10 50 13 44 3 -8 -12 6 -12 24 0 9 6 22 6
34 -1 15 -8 18 -7 12 2 -6 10 -1 12 19 8 14 -3 29 -1 32 4 3 4 10 5 16 2 6 -4
8 -2 5 3 -4 7 7 13 28 17 24 5 33 11 28 21 -3 10 1 15 12 15 9 0 13 5 10 10
-3 6 1 13 10 16 13 6 14 8 3 15 -10 7 -11 9 0 9 13 0 12 46 -2 69 -4 5 -1 13
5 17 7 4 9 3 5 -4 -3 -6 -2 -13 3 -16 11 -7 9 13 -2 32 -5 6 -5 17 -1 24 4 7
3 8 -4 4 -6 -3 -16 3 -22 15 -8 15 -9 19 -1 15 6 -4 11 -2 11 3 0 6 -7 11 -15
11 -8 0 -14 6 -13 13 2 6 -3 11 -9 9 -7 -1 -13 5 -13 14 0 9 5 13 13 9 6 -4
-3 7 -20 23 -18 15 -33 33 -33 39 0 6 -7 13 -15 17 -8 3 -12 12 -9 21 3 8 1
15 -6 15 -6 0 -8 -5 -5 -10 3 -6 2 -10 -4 -10 -5 0 -13 10 -17 23 -4 12 -11
25 -16 28 -6 4 32 7 83 8 132 2 190 10 276 38 44 14 56 24 72 55 25 52 19 189
-10 224 -5 7 -9 16 -7 20 1 5 -3 19 -10 32 -7 12 -10 22 -7 22 3 0 1 6 -5 13
-16 18 -58 107 -48 101 13 -9 9 3 -8 20 -8 9 -11 16 -5 16 6 0 11 4 11 10 0 5
-7 7 -15 4 -11 -5 -15 1 -15 21 0 17 -4 24 -12 19 -6 -4 -8 -3 -4 4 3 6 -1 17
-9 25 -8 9 -15 20 -15 26 0 6 -4 11 -10 11 -5 0 -10 7 -10 15 0 8 -9 24 -19
34 -11 11 -17 22 -14 25 4 3 1 6 -6 6 -7 0 -9 5 -6 10 3 6 2 10 -2 10 -5 0
-16 13 -25 28 -16 27 -16 28 29 70 27 26 51 41 60 38 9 -4 11 -2 7 6 -5 7 -2
9 8 5 9 -3 21 0 27 6 9 9 14 8 21 -3 8 -12 10 -12 10 -1 0 8 7 11 18 9 10 -3
24 1 31 9 9 10 17 11 24 4 7 -7 16 -7 30 0 15 9 18 8 11 -3 -6 -11 -5 -11 9 1
14 11 17 11 17 0 0 -10 2 -11 8 -2 4 6 20 10 35 9 15 -2 27 2 27 8 0 6 5 4 10
-4 8 -12 10 -12 10 -1 0 11 3 11 17 0 10 -8 14 -9 10 -2 -5 8 1 11 20 9 16 -2
36 1 47 6 13 7 16 7 12 -1 -4 -6 -3 -11 3 -11 5 0 13 5 17 11 4 8 9 7 15 -2 5
-8 9 -9 9 -3 0 6 12 10 28 9 15 -1 30 3 34 9 5 7 8 6 8 -3 0 -11 4 -10 16 5 8
10 12 12 8 4 -7 -13 -5 -13 9 -1 9 7 17 10 17 7 0 -4 6 -1 14 6 8 7 13 18 13
23 -1 6 5 10 14 9 11 -1 15 7 14 27 -1 15 2 26 7 23 4 -3 8 -1 8 5 0 5 -5 13
-10 16 -6 4 -7 12 -3 18 11 18 12 37 3 37 -5 0 -7 9 -5 20 2 11 -1 20 -7 20
-6 0 -6 6 2 15 11 13 10 14 -4 9 -9 -3 -16 -2 -16 4 0 6 6 13 13 15 6 3 2 6
-10 6 -14 1 -21 6 -18 14 6 14 -30 77 -45 77 -5 0 -6 7 -3 17 4 10 2 14 -4 10
-13 -8 -26 20 -16 35 3 6 1 8 -5 4 -6 -4 -12 3 -14 16 -2 13 -9 22 -16 20 -9
-2 -11 4 -7 18 5 15 2 20 -12 20 -15 0 -16 2 -3 10 11 7 11 10 2 10 -7 0 -10
5 -7 10 3 6 1 10 -5 10 -6 0 -8 4 -5 10 3 5 1 10 -5 10 -6 0 -8 5 -5 10 3 6 1
10 -6 10 -10 0 -10 3 -2 11 11 11 98 17 108 8 8 -9 127 -1 170 11 27 8 47 21
56 36 7 13 16 24 21 24 9 0 32 50 30 63 -1 4 2 7 6 7 26 0 51 175 32 225 -5
14 -6 26 -2 29 4 2 7 47 6 98 -1 91 -23 185 -47 200 -7 4 -4 16 8 35 16 23 20
25 23 10 3 -14 7 -16 18 -6 11 9 14 8 14 -2 0 -11 2 -11 10 1 7 12 10 12 10 1
0 -7 6 -11 15 -7 8 3 15 1 15 -3 0 -5 9 -7 20 -4 12 3 20 0 20 -8 0 -7 3 -9 6
-6 4 3 16 2 27 -4 14 -8 18 -8 13 0 -9 14 0 14 25 1 13 -7 19 -7 19 0 0 5 5
10 11 10 5 0 7 -6 3 -12 -6 -10 -5 -10 8 -1 8 7 18 10 22 6 4 -4 4 0 1 8 -3 9
2 22 12 30 17 13 17 12 4 -6 -7 -11 1 -4 18 14 19 22 27 37 20 42 -6 3 -1 9
13 13 19 5 20 8 8 15 -12 9 -12 11 2 16 9 4 14 13 11 21 -3 8 1 14 8 14 11 0
11 3 -1 10 -9 6 -10 10 -3 10 14 0 13 40 -2 40 -5 0 -3 5 7 10 10 6 14 18 11
30 -3 11 -9 17 -14 14 -5 -3 -9 -1 -9 5 0 5 4 12 10 16 5 3 7 12 4 20 -4 8
-10 12 -15 9 -5 -3 -6 2 -3 10 4 10 1 16 -7 16 -11 0 -11 3 1 10 9 6 11 10 3
10 -7 0 -10 7 -6 17 5 12 3 14 -7 8 -10 -6 -12 -4 -7 8 3 10 2 17 -4 17 -6 0
-7 5 -4 10 4 6 1 18 -7 27 -11 14 -11 16 2 9 9 -5 8 -2 -2 7 -14 11 -15 16 -5
27 10 10 9 11 -2 5 -11 -6 -13 -3 -9 13 3 12 3 21 -1 20 -18 -2 -22 4 -11 17
10 12 10 15 0 15 -8 0 -10 3 -7 7 4 3 -1 12 -11 19 -14 11 -14 13 -2 14 12 0
11 3 -3 11 -9 6 -15 14 -12 20 4 5 2 9 -2 9 -5 0 -10 12 -11 26 -1 15 -7 33
-13 40 -17 20 -3 47 21 41 11 -3 18 -1 14 4 -3 5 4 9 15 9 11 0 23 5 26 10 4
6 11 8 16 5 20 -13 87 84 73 106 -3 5 -1 9 5 9 5 0 8 9 6 20 -2 11 1 20 7 20
7 0 7 4 -1 13 -6 8 -8 17 -5 20 10 9 12 97 3 91 -5 -3 -5 6 1 20 5 14 6 26 1
26 -9 0 -5 115 4 130 3 6 2 10 -3 10 -5 0 -9 7 -9 15 0 8 4 12 7 10 4 -3 8 8
8 23 0 40 6 72 12 72 3 0 7 15 9 33 4 46 8 72 11 72 1 0 3 24 4 54 1 35 -3 55
-11 58 -7 3 -11 8 -9 12 2 3 -7 11 -20 18 -13 6 -22 7 -19 2 3 -4 -7 -2 -22 6
-19 10 -31 11 -40 3 -9 -7 -13 -7 -13 1 0 7 -3 10 -8 7 -4 -2 -30 -5 -57 -7
-28 -1 -54 -5 -60 -8 -10 -5 -59 -12 -102 -15 -13 0 -23 -5 -23 -9 0 -5 -4 -6
-9 -2 -5 3 -31 0 -58 -6 -61 -13 -143 -17 -143 -6 0 4 -4 6 -9 3 -5 -3 -26 -8
-47 -12 -22 -3 -47 -10 -56 -15 -10 -5 -18 -7 -18 -3 0 3 -6 2 -12 -3 -19 -14
-53 -1 -56 22 l-4 20 17 -20 c16 -20 16 -20 5 2 -13 28 -37 42 -64 36 -15 -4
-17 -2 -8 5 11 7 7 12 -16 20 -17 6 -33 8 -36 5 -2 -3 -21 -7 -41 -9 -30 -3
-35 -1 -25 11 9 11 7 12 -9 8 -13 -3 -18 -12 -16 -24 2 -11 0 -17 -6 -14 -5 4
-7 11 -4 16 10 15 -39 5 -53 -11 -12 -13 -13 -13 -8 3 8 25 -8 21 -20 -5 -6
-13 -9 -17 -7 -10 3 15 -23 16 -33 0 -5 -7 -3 -8 6 -3 8 5 11 4 6 -3 -4 -6
-13 -9 -22 -5 -12 4 -12 8 -2 22 12 14 11 15 -6 1 -10 -8 -25 -15 -33 -16 -9
-2 -21 -8 -27 -14 -8 -8 -7 -10 4 -7 8 2 12 2 7 0 -4 -3 -4 -10 -1 -15 4 -7 2
-8 -5 -4 -6 4 -18 2 -26 -4 -11 -9 -15 -9 -15 -1 0 6 5 11 10 11 6 0 10 5 10
11 0 8 -4 9 -13 0 -8 -6 -17 -7 -21 -3 -5 4 -6 -1 -4 -10 1 -9 -1 -16 -7 -15
-5 1 -9 6 -7 12 2 5 0 7 -4 3 -4 -4 -14 -2 -23 5 -14 11 -14 10 -2 -5 12 -16
11 -18 -2 -18 -8 0 -18 6 -20 13 -4 9 -6 8 -6 -2 -1 -10 -4 -11 -15 -2 -12 10
-14 8 -10 -11 2 -13 1 -17 -2 -10 -5 10 -9 9 -20 -5 -12 -15 -13 -15 -8 -2 3
10 0 20 -7 25 -8 4 -10 3 -5 -4 7 -12 -42 -38 -52 -27 -3 3 0 5 5 5 24 0 158
139 213 222 75 112 98 184 101 313 2 73 21 121 42 108 7 -4 20 -6 30 -5 10 2
26 -2 35 -10 10 -8 13 -8 9 -1 -4 6 -3 14 3 18 5 3 10 1 10 -6 0 -9 3 -9 14 0
11 9 16 9 22 0 5 -8 3 -9 -6 -4 -9 5 -11 4 -6 -3 5 -9 14 -7 32 4 23 15 24 15
18 -1 -7 -17 -6 -17 20 0 25 17 26 17 19 -1 -6 -17 -5 -17 10 -6 10 9 35 13
66 10 27 -1 47 0 45 4 -2 4 0 9 5 12 5 4 12 2 16 -4 4 -7 13 -7 26 0 11 7 17
16 12 23 -4 7 0 7 10 -2 16 -12 22 -8 18 13 -1 5 5 6 14 3 9 -4 15 -1 15 8 0
8 6 12 14 9 7 -3 16 2 20 11 3 9 10 13 16 10 5 -3 10 1 10 9 0 9 5 16 11 16 5
0 7 -5 4 -11 -4 -6 2 -5 13 2 12 7 18 17 16 21 -3 5 -10 5 -16 2 -7 -4 -8 -2
-4 4 4 6 13 9 21 5 8 -3 15 0 15 7 0 9 4 9 18 -1 9 -7 14 -10 10 -5 -4 5 4 17
17 28 14 11 25 28 25 38 0 10 6 21 13 23 9 4 9 6 0 6 -7 1 -10 8 -7 16 4 8 10
12 15 9 5 -3 6 2 3 10 -3 9 -9 14 -13 12 -4 -3 -7 4 -7 14 0 10 4 16 8 14 4
-3 8 0 8 5 0 6 -4 11 -8 11 -4 0 -8 9 -9 20 -1 11 3 20 9 20 5 0 0 9 -13 21
-13 11 -18 18 -11 14 16 -8 16 7 0 23 -10 10 -10 15 2 22 12 8 12 10 1 10 -10
0 -11 3 -2 14 9 10 9 16 1 21 -8 5 -8 11 1 21 9 11 8 14 -2 14 -8 0 -6 5 6 13
14 11 15 16 5 22 -9 6 -11 4 -5 -5 5 -9 4 -11 -4 -6 -9 6 -9 11 0 23 10 12 10
16 -2 24 -11 7 -8 9 10 9 24 0 24 0 5 16 -10 8 -13 12 -5 8 10 -5 11 -1 6 16
-6 17 -4 21 6 14 11 -6 12 -5 3 7 -14 19 -10 59 7 70 11 7 9 9 -6 9 -17 0 -17
2 -5 10 13 8 12 10 -4 10 -11 0 -17 3 -13 6 11 11 -21 34 -47 34 -14 0 -26 6
-26 13 0 8 -4 7 -10 -3 -9 -13 -11 -13 -20 0 -7 11 -10 11 -10 2 0 -7 -6 -12
-12 -11 -26 3 -39 -1 -33 -11 3 -5 1 -10 -4 -10 -6 0 -11 6 -11 13 -1 7 -6 5
-14 -5 -7 -10 -16 -15 -19 -11 -4 3 -7 1 -7 -5 0 -7 -5 -12 -11 -12 -5 0 -7 6
-4 13 4 6 0 4 -8 -5 -16 -21 -32 -24 -21 -5 4 6 -2 3 -14 -7 -15 -13 -22 -15
-22 -6 0 10 -3 10 -15 0 -12 -10 -15 -10 -15 0 0 10 -3 10 -15 0 -12 -10 -15
-10 -15 0 0 8 -4 9 -12 3 -7 -5 -29 -8 -48 -7 -19 1 -41 -3 -49 -9 -12 -9 -13
-9 -7 1 4 6 2 12 -3 12 -6 0 -11 -4 -11 -8 0 -5 -10 -8 -22 -7 -13 1 -26 -3
-30 -9 -5 -7 -8 -6 -8 3 0 11 -3 11 -17 0 -15 -12 -16 -12 -8 1 7 12 6 13 -6
4 -8 -6 -26 -11 -41 -10 -14 1 -26 -2 -25 -7 1 -5 -7 -11 -18 -13 -11 -1 -21
-8 -23 -13 -2 -6 -10 -11 -17 -11 -8 0 -25 -11 -39 -25 -14 -14 -28 -25 -31
-25 -26 1 -29 -1 -15 -10 13 -8 12 -10 -3 -10 -10 0 -16 -4 -12 -9 3 -5 1 -12
-5 -16 -5 -3 -10 0 -10 7 -1 9 -5 8 -13 -4 -11 -14 -27 -16 -108 -11 -52 3
-122 6 -157 7 -34 0 -62 3 -62 6 0 4 16 12 36 19 19 7 38 19 41 27 3 8 9 11
14 8 5 -3 12 2 15 10 3 9 11 13 17 9 5 -3 7 -1 3 5 -3 6 5 19 19 30 14 11 25
23 25 26 0 4 24 31 53 60 50 50 55 52 111 55 75 3 86 6 139 29 46 21 149 106
140 116 -4 3 -1 6 6 6 32 0 90 96 115 190 16 61 13 184 -4 200 -7 6 -40 108
-40 122 0 24 -33 77 -44 71 -6 -4 -5 1 3 10 9 11 10 17 2 17 -6 0 -11 9 -11
20 0 11 -5 20 -11 20 -5 0 -7 6 -3 13 6 9 5 9 -7 0 -12 -10 -15 -8 -16 8 -1
10 3 19 9 19 6 0 8 3 5 6 -4 4 -12 2 -20 -4 -10 -8 -16 -6 -27 11 -12 20 -12
21 3 9 12 -10 17 -10 23 -1 4 7 3 9 -4 5 -6 -3 -13 -2 -17 4 -3 5 -15 10 -27
10 -17 0 -18 3 -8 15 10 12 8 13 -10 10 -17 -3 -19 -1 -11 9 9 10 6 19 -10 37
l-21 24 17 -30 16 -30 -20 23 c-10 12 -24 22 -29 22 -5 0 -15 6 -21 14 -11 13
-65 10 -56 -3 5 -9 -32 -7 -41 2 -4 4 -13 -2 -21 -13 -8 -11 -19 -20 -25 -20
-7 0 -3 7 8 15 23 17 14 19 -20 4 -14 -7 -23 -16 -20 -20 3 -5 -2 -6 -10 -3
-10 4 -16 1 -16 -7 0 -11 -3 -11 -10 1 -8 13 -10 12 -10 -2 0 -10 -5 -18 -11
-18 -5 0 -7 6 -3 13 5 8 3 8 -9 -2 -9 -7 -14 -18 -11 -23 3 -5 0 -8 -7 -7 -25
5 -59 -20 -52 -38 5 -13 2 -15 -11 -10 -9 4 -15 3 -12 -2 3 -4 -21 -7 -52 -6
-31 1 -70 -2 -87 -7 -16 -5 -63 -15 -104 -24 -63 -13 -139 -41 -203 -74 -11
-6 -18 -5 -21 3 -3 7 -6 4 -6 -7 -1 -16 -3 -17 -18 -5 -14 12 -16 12 -8 0 6
-11 4 -13 -8 -8 -11 4 -20 -1 -28 -14 -9 -17 -13 -18 -27 -7 -9 7 -13 8 -9 2
4 -7 1 -14 -6 -16 -20 -8 -37 3 -37 23 0 11 -5 17 -10 14 -6 -4 -7 -11 -4 -17
4 -7 2 -8 -5 -4 -6 4 -8 12 -5 18 4 7 -2 8 -17 3 -20 -7 -22 -6 -12 7 10 12
10 15 -2 15 -7 0 -13 -5 -12 -10 1 -5 -4 -12 -12 -15 -8 -2 -11 0 -7 6 9 15
-22 8 -37 -8 -9 -10 -9 -11 0 -6 9 5 11 2 7 -8 -5 -13 -9 -12 -26 7 -11 12
-17 17 -14 10 4 -6 2 -14 -3 -18 -6 -3 -8 -12 -4 -20 4 -11 1 -13 -10 -9 -9 3
-14 13 -11 22 5 15 4 15 -6 0 -6 -10 -18 -22 -28 -28 -15 -10 -15 -11 3 -6 20
6 20 6 1 -9 -26 -20 -37 -19 -29 2 6 15 5 16 -9 3 -8 -8 -13 -21 -11 -28 3 -7
0 -12 -8 -10 -8 2 -13 -2 -12 -8 1 -7 -10 -10 -28 -8 -16 2 -28 0 -25 -4 3 -5
-5 -8 -17 -7 -31 3 -49 -5 -44 -19 3 -7 -5 -12 -19 -12 -14 0 -24 6 -24 14 0
12 3 12 15 2 10 -9 15 -9 15 -1 0 11 -11 14 -40 12 -10 0 -11 1 -2 5 6 3 9 11
5 17 -3 7 -3 9 2 5 13 -12 33 11 28 31 -3 10 1 22 8 26 8 6 10 4 4 -6 -8 -12
-6 -12 8 0 18 14 23 26 8 16 -5 -3 -12 -1 -16 5 -3 5 2 10 12 11 10 0 13 3 6
6 -7 2 -13 9 -13 14 0 4 6 6 14 3 9 -4 13 2 11 21 -2 17 3 29 16 35 10 6 19
16 19 22 0 6 -7 5 -17 -3 -16 -12 -17 -12 -6 2 7 9 9 20 5 24 -4 5 -2 6 3 2 6
-3 17 3 24 15 7 11 8 18 3 14 -5 -3 -9 1 -9 8 0 8 8 12 21 9 17 -4 18 -3 6 6
-13 10 -13 12 0 21 13 9 13 10 0 10 -9 0 -11 3 -5 8 25 18 36 40 24 48 -8 5
-9 3 -4 -6 5 -9 4 -11 -4 -6 -6 4 -9 12 -5 17 3 5 10 7 15 4 5 -4 9 9 9 27 0
25 3 29 10 18 5 -8 10 -10 10 -4 0 5 -6 16 -12 23 -10 11 -10 13 0 7 8 -5 12
0 12 14 0 12 5 18 10 15 6 -3 10 -2 10 4 0 5 -6 12 -12 14 -7 3 -4 6 7 7 l20
1 -20 9 c-17 7 -17 9 -3 9 12 1 15 6 11 18 -5 13 -3 15 12 9 18 -6 18 -6 2 12
-9 10 -17 23 -17 28 0 5 5 2 10 -6 8 -13 10 -12 10 3 0 10 5 15 10 12 6 -3 10
-1 10 4 0 6 -6 11 -12 11 -10 0 -9 3 1 9 11 7 11 9 0 14 -10 4 -10 6 2 6 11 1
15 9 13 27 -1 15 3 28 12 31 11 4 11 9 2 26 -10 20 -10 21 6 8 14 -12 16 -12
10 4 -5 13 -4 16 5 10 10 -6 11 -3 2 13 -14 26 -14 35 -1 27 6 -4 13 7 16 24
4 18 11 28 17 24 6 -4 7 -1 1 8 -4 8 -9 20 -10 27 -2 11 0 11 14 0 11 -9 14
-9 8 -1 -4 7 -2 21 4 32 7 13 7 22 0 26 -11 7 5 46 18 44 19 -3 23 2 12 16
-10 12 -10 15 4 15 9 0 16 5 16 11 0 5 4 8 9 5 5 -4 8 5 7 18 -3 19 1 24 16
21 14 -3 18 0 14 10 -3 8 0 15 7 15 8 0 6 4 -3 10 -13 8 -13 10 2 10 9 0 20 5
24 12 5 7 3 8 -6 3 -10 -6 -12 -4 -7 9 4 10 7 21 7 24 0 4 5 0 10 -8 8 -13 10
-12 10 3 0 9 -1 18 -2 20 -1 1 4 13 11 26 7 13 9 21 4 18 -13 -8 -12 67 1 75
7 5 4 8 -6 8 -10 0 -17 3 -17 8 1 4 1 14 0 22 -1 13 -2 13 -11 0 -8 -13 -10
-13 -10 2 0 9 6 19 13 22 6 4 2 4 -10 2 -15 -3 -23 1 -23 10 0 13 -13 19 -34
15 -5 -1 -3 6 5 15 12 16 12 17 -3 12 -10 -4 -19 -1 -22 8 -4 9 -2 12 5 8 7
-4 10 -1 7 7 -3 8 -11 13 -17 12 -6 -2 -11 2 -11 7 0 6 7 10 15 10 8 0 15 5
15 11 0 5 -6 7 -12 3 -9 -5 -9 -2 1 9 12 15 9 21 -10 19 -3 -1 -6 5 -6 13 0
11 5 12 21 3 17 -8 19 -8 9 2 -6 7 -9 20 -6 29 4 14 3 14 -6 1 -9 -13 -11 -13
-11 2 0 10 -10 29 -21 43 -17 19 -26 22 -41 14 -10 -5 -18 -6 -17 -2 1 4 1 15
0 23 -1 13 -2 13 -11 0 -5 -8 -10 -10 -10 -4 0 6 -6 11 -12 11 -7 0 -20 2 -28
4 -9 3 -15 -3 -14 -13 1 -10 -4 -14 -12 -11 -8 3 -12 8 -9 12 8 15 -35 4 -53
-12 -24 -22 -39 -22 -21 0 13 15 12 15 -8 3 -12 -8 -19 -19 -16 -25 4 -5 -3
-2 -14 8 -14 13 -23 15 -28 7 -5 -8 -10 -8 -20 0 -10 8 -15 8 -21 -1 -5 -8 -3
-9 6 -4 8 5 11 4 6 -3 -4 -6 -13 -9 -21 -6 -8 4 -12 10 -9 15 3 5 -2 6 -10 3
-9 -3 -13 -11 -9 -18 3 -6 -4 -2 -16 8 -21 19 -21 19 -15 1 5 -13 4 -16 -4
-11 -7 4 -12 2 -12 -6 0 -8 -5 -6 -11 5 -8 14 -14 16 -25 6 -11 -9 -15 -8 -19
3 -3 8 -12 15 -20 15 -8 0 -12 -4 -9 -9 3 -4 0 -8 -5 -8 -6 0 -11 4 -11 9 0 4
-12 7 -27 7 -16 -1 -34 3 -40 8 -14 9 -19 71 -5 63 4 -3 7 6 7 19 0 15 -5 22
-12 20 -7 -3 -10 1 -6 9 3 8 9 13 13 10 5 -3 12 0 16 6 4 7 3 9 -4 5 -6 -3
-13 -2 -17 4 -4 6 -12 7 -18 3 -7 -3 -3 4 8 16 18 20 18 24 4 34 -9 7 -14 18
-11 26 3 9 0 11 -8 6 -9 -5 -10 -2 -5 15 5 17 4 21 -6 15 -9 -6 -11 -3 -5 10
5 15 4 16 -9 5 -12 -10 -15 -10 -15 4 0 26 -45 70 -65 63 -9 -4 -14 -3 -10 3
3 6 -1 13 -9 16 -9 3 -14 9 -11 13 2 4 -10 15 -28 25 l-32 18 24 -20 c18 -14
21 -21 11 -27 -9 -5 -11 -4 -6 3 4 7 1 13 -6 14 -29 3 -34 4 -54 16 -12 6 -25
8 -30 4 -5 -4 -2 2 6 12 14 17 13 18 -8 12 -17 -6 -22 -3 -22 10 0 17 -1 17
-13 0 -12 -16 -14 -16 -34 4 -25 22 -38 26 -27 8 5 -9 2 -9 -9 1 -19 15 -23
26 -5 15 7 -5 8 -3 4 5 -5 7 -14 10 -22 7 -9 -3 -11 0 -7 12 6 15 5 16 -12 2
-17 -14 -18 -13 -12 2 3 10 2 20 -4 23 -5 4 -6 11 -3 17 4 7 2 8 -5 4 -6 -4
-9 -13 -5 -19 3 -7 -1 -4 -9 6 -8 9 -20 17 -26 17 -7 0 -9 5 -5 12 4 6 3 8 -4
4 -6 -3 -13 -2 -16 3 -3 5 -16 7 -28 3 -13 -3 -19 -1 -15 5 3 5 0 10 -8 10 -8
0 -12 -3 -10 -7 2 -4 -2 -7 -10 -7 -8 0 -12 4 -9 8 2 4 -1 11 -7 15 -8 5 -9 3
-4 -6z m-812 -265 c-3 -9 -8 -14 -10 -11 -3 3 -2 9 2 15 9 16 15 13 8 -4z
m1322 6 c3 -5 2 -12 -3 -15 -5 -3 -9 1 -9 9 0 17 3 19 12 6z m-1105 -15 c0 -3
-4 -8 -10 -11 -5 -3 -10 -1 -10 4 0 6 5 11 10 11 6 0 10 -2 10 -4z m-313 -91
c0 -8 -4 -12 -9 -9 -5 3 -6 10 -3 15 9 13 12 11 12 -6z m644 -88 c-6 -8 -9
-16 -6 -19 3 -3 -1 -11 -10 -18 -10 -8 -15 -9 -15 -1 0 6 5 11 10 11 6 0 9 3
9 8 -3 19 2 32 12 32 8 0 9 -4 0 -13z m-111 -7 c0 -5 -5 -10 -11 -10 -5 0 -7
5 -4 10 3 6 8 10 11 10 2 0 4 -4 4 -10z m1406 -122 c4 -7 3 -8 -4 -4 -7 4 -12
2 -12 -5 0 -7 -3 -10 -6 -6 -6 5 3 27 11 27 2 0 7 -5 11 -12z m-1956 -197 c0
-5 -7 -12 -16 -15 -14 -5 -15 -4 -4 9 14 17 20 19 20 6z m-70 -451 c0 -5 -5
-10 -11 -10 -5 0 -7 5 -4 10 3 6 8 10 11 10 2 0 4 -4 4 -10z m-1130 -14 c0 -3
-4 -8 -10 -11 -5 -3 -10 -1 -10 4 0 6 5 11 10 11 6 0 10 -2 10 -4z m3313 -41
c-3 -9 -8 -14 -10 -11 -3 3 -2 9 2 15 9 16 15 13 8 -4z m787 -625 c-8 -5 -19
-10 -25 -10 -5 0 -3 5 5 10 8 5 20 10 25 10 6 0 3 -5 -5 -10z m-565 -169 c3
-5 2 -12 -3 -15 -5 -3 -9 1 -9 9 0 17 3 19 12 6z m-248 -16 c0 -8 -4 -12 -9
-9 -5 3 -6 10 -3 15 9 13 12 11 12 -6z m-39 -40 c-3 -3 -9 2 -12 12 -6 14 -5
15 5 6 7 -7 10 -15 7 -18z m-184 -81 c3 -8 2 -12 -4 -9 -6 3 -10 10 -10 16 0
14 7 11 14 -7z m-4054 2 c0 -3 -4 -8 -10 -11 -5 -3 -10 -1 -10 4 0 6 5 11 10
11 6 0 10 -2 10 -4z m1737 -641 c0 -8 -4 -12 -9 -9 -5 3 -6 10 -3 15 9 13 12
11 12 -6z m-2031 -345 c9 0 12 -4 9 -10 -3 -5 0 -10 8 -10 14 0 27 -19 33 -48
1 -8 -3 -11 -12 -8 -8 3 -14 1 -14 -5 0 -6 -4 -7 -10 -4 -5 3 -10 1 -10 -6 0
-7 -7 -4 -16 7 -8 10 -12 12 -8 4 7 -12 5 -13 -8 -3 -8 7 -17 11 -19 10 -2 -2
-12 5 -21 15 -10 10 -14 18 -9 18 5 0 7 10 3 22 -3 14 -1 19 6 14 6 -3 14 -1
17 5 4 5 14 8 22 5 8 -3 21 -6 29 -6z m114 -52 c0 -5 6 -6 13 -2 6 4 9 4 5 0
-3 -4 -3 -20 2 -35 6 -22 4 -30 -12 -40 -12 -7 -17 -8 -13 -2 4 7 -3 11 -17
12 -13 0 -17 3 -9 6 10 4 10 7 1 13 -8 5 -8 11 4 22 9 10 11 19 5 25 -6 6 -4
10 6 10 8 0 15 -4 15 -9z m6250 -182 c0 -2 -8 -10 -17 -17 -16 -13 -17 -12 -4
4 13 16 21 21 21 13z m-330 -761 c0 -2 -9 -3 -19 -2 -11 0 -18 5 -15 9 4 6 34
0 34 -7z m-343 -10 c4 -4 3 -5 -4 -2 -6 4 -13 2 -15 -5 -3 -8 -6 -6 -10 4 -7
17 15 19 29 3z m-177 -45 c0 -5 -5 -10 -11 -10 -5 0 -7 5 -4 10 3 6 8 10 11
10 2 0 4 -4 4 -10z m-6342 -405 c-3 -3 -9 2 -12 12 -6 14 -5 15 5 6 7 -7 10
-15 7 -18z m48 -1347 c3 -4 -1 -5 -10 -4 -8 1 -18 5 -22 8 -3 4 1 5 10 4 8 -1
18 -5 22 -8z m69 -8 c3 -5 1 -10 -4 -10 -6 0 -11 5 -11 10 0 6 2 10 4 10 3 0
8 -4 11 -10z m262 -65 c0 -8 -4 -12 -9 -9 -4 3 -8 0 -8 -7 0 -7 -3 -9 -6 -6
-4 4 -1 13 6 22 15 19 17 19 17 0z m-3 -441 c6 -15 4 -15 -11 -3 -10 7 -20 15
-22 16 -2 2 3 3 11 3 9 0 19 -7 22 -16z m33 -19 c0 -8 -4 -12 -9 -9 -5 3 -6
10 -3 15 9 13 12 11 12 -6z m-359 -130 c-3 -3 -9 2 -12 12 -6 14 -5 15 5 6 7
-7 10 -15 7 -18z m236 -1187 c-5 -8 -1 -9 12 -4 14 5 16 4 7 -5 -13 -13 -37
-3 -28 12 4 5 8 9 11 9 3 0 2 -5 -2 -12z m183 -273 c0 -8 -4 -12 -9 -9 -5 3
-6 10 -3 15 9 13 12 11 12 -6z m5503 -509 c0 -2 -7 -7 -16 -10 -8 -3 -12 -2
-9 4 6 10 25 14 25 6z m-170 -90 c0 -3 -4 -8 -10 -11 -5 -3 -10 -1 -10 4 0 6
5 11 10 11 6 0 10 -2 10 -4z m-3455 -1906 c3 -6 -1 -7 -9 -4 -18 7 -21 14 -7
14 6 0 13 -4 16 -10z m795 -524 c0 -3 -4 -8 -10 -11 -5 -3 -10 -1 -10 4 0 6 5
11 10 11 6 0 10 -2 10 -4z"/>
<path d="M6750 11141 c0 -5 5 -13 10 -16 6 -3 10 -2 10 4 0 5 -4 13 -10 16 -5
3 -10 2 -10 -4z"/>
<path d="M6840 11105 c0 -2 6 -8 13 -14 10 -8 14 -7 14 2 0 8 -6 14 -14 14 -7
0 -13 -1 -13 -2z"/>
<path d="M6955 11050 c3 -5 8 -10 11 -10 2 0 4 5 4 10 0 6 -5 10 -11 10 -5 0
-7 -4 -4 -10z"/>
<path d="M5580 10529 c0 -5 5 -7 10 -4 6 3 10 8 10 11 0 2 -4 4 -10 4 -5 0
-10 -5 -10 -11z"/>
<path d="M7830 10341 c0 -6 4 -13 10 -16 6 -3 7 1 4 9 -7 18 -14 21 -14 7z"/>
<path d="M5472 9941 c2 -7 7 -12 11 -12 12 1 9 15 -3 20 -7 2 -11 -2 -8 -8z"/>
<path d="M8656 9473 c-6 -14 -5 -15 5 -6 7 7 10 15 7 18 -3 3 -9 -2 -12 -12z"/>
<path d="M8750 9470 c0 -5 5 -10 10 -10 6 0 10 5 10 10 0 6 -4 10 -10 10 -5 0
-10 -4 -10 -10z"/>
<path d="M7807 9195 c-4 -8 -3 -16 1 -19 4 -3 9 4 9 15 2 23 -3 25 -10 4z"/>
<path d="M7497 9123 c-4 -3 -7 -11 -7 -17 0 -6 5 -5 12 2 6 6 9 14 7 17 -3 3
-9 2 -12 -2z"/>
<path d="M7466 9107 c3 -10 9 -15 12 -12 3 3 0 11 -7 18 -10 9 -11 8 -5 -6z"/>
<path d="M7425 9100 c-3 -5 -1 -10 4 -10 6 0 11 5 11 10 0 6 -2 10 -4 10 -3 0
-8 -4 -11 -10z"/>
<path d="M3990 8669 c0 -5 5 -7 10 -4 6 3 10 8 10 11 0 2 -4 4 -10 4 -5 0 -10
-5 -10 -11z"/>
<path d="M8963 7135 c0 -7 6 -11 14 -8 7 3 13 6 13 8 0 2 -6 5 -13 8 -8 3 -14
-1 -14 -8z"/>
<path d="M2520 5000 c-13 -8 -12 -10 3 -10 9 0 17 5 17 10 0 12 -1 12 -20 0z"/>
<path d="M2530 4855 c0 -8 4 -15 10 -15 5 0 7 7 4 15 -4 8 -8 15 -10 15 -2 0
-4 -7 -4 -15z"/>
<path d="M2540 4822 c0 -5 7 -9 15 -9 8 0 12 4 9 9 -3 4 -9 8 -15 8 -5 0 -9
-4 -9 -8z"/>
<path d="M2674 4706 c1 -8 5 -18 8 -22 4 -3 5 1 4 10 -1 8 -5 18 -8 22 -4 3
-5 -1 -4 -10z"/>
<path d="M8755 4130 c-3 -5 -1 -10 4 -10 6 0 11 5 11 10 0 6 -2 10 -4 10 -3 0
-8 -4 -11 -10z"/>
<path d="M2122 3634 c-7 -8 -8 -14 -3 -14 10 0 25 19 20 25 -2 1 -10 -3 -17
-11z"/>
<path d="M2330 3429 c0 -5 5 -7 10 -4 6 3 10 8 10 11 0 2 -4 4 -10 4 -5 0 -10
-5 -10 -11z"/>
<path d="M2205 3409 c-4 -6 -4 -13 -1 -16 3 -4 6 -1 6 6 0 7 5 9 12 5 7 -4 8
-3 4 4 -9 15 -13 15 -21 1z"/>
<path d="M2596 3152 c-3 -5 1 -9 9 -9 8 0 12 4 9 9 -3 4 -7 8 -9 8 -2 0 -6 -4
-9 -8z"/>
<path d="M8213 2685 c0 -8 4 -12 9 -9 5 3 6 10 3 15 -9 13 -12 11 -12 -6z"/>
<path d="M6965 490 c-3 -5 -1 -10 4 -10 6 0 11 5 11 10 0 6 -2 10 -4 10 -3 0
-8 -4 -11 -10z"/>
</g>
</svg>
